<svg xmlns="http://www.w3.org/2000/svg" viewBox="0 0 48 48" fill="none">
  <path d="M31.5 17.2c-1.7-2-4-2.3-4.9-2.3-2 0-3.8 1.2-4.8 1.2-1 0-2.6-1.1-4.3-1.1-2.2 0-4.3 1.3-5.4 3.3-2.3 4-.6 10 1.7 13.3 1.1 1.6 2.4 3.4 4.2 3.3 1.7-.1 2.3-1.1 4.3-1.1s2.6 1.1 4.3 1c1.8-.1 2.9-1.6 4-3.3 1.3-1.9 1.8-3.7 1.8-3.8-.1 0-3.5-1.3-3.5-5.2 0-3.3 2.7-4.8 2.8-4.9-1.5-2.3-3.9-2.5-4.2-2.4Z" fill="#111827"/>
  <path d="M27 10.5c.9-1.1 1.5-2.6 1.3-4.1-1.3.1-2.9 1-3.8 2.1-.8.9-1.5 2.5-1.3 3.9 1.4.1 2.9-.7 3.8-1.9Z" fill="#111827"/>
</svg>
